HIERARCHY
ROOT Hips
{
  OFFSET 377.763 88.2609 174.383
  CHANNELS 6 Xposition Yposition Zposition Zrotation Xrotation Yrotation
  JOINT RightUpLeg
  {
    OFFSET -9.30536 -1.56319 -0.0308412
    CHANNELS 3 Zrotation Xrotation Yrotation
    JOINT RightLeg
    {
      OFFSET -0.0509473 -41.8867 0.0408735
      CHANNELS 3 Zrotation Xrotation Yrotation
      JOINT RightFoot
      {
        OFFSET -0.135761 -42.7852 -0.897951
        CHANNELS 3 Zrotation Xrotation Yrotation
        End Site
        {
          OFFSET 0 -7.69 17.5
        }
      }
    }
  }
  JOINT LeftUpLeg
  {
    OFFSET 9.25165 -1.62789 -0.00729124
    CHANNELS 3 Zrotation Xrotation Yrotation
    JOINT LeftLeg
    {
      OFFSET 0.024936 -41.8804 0.00207043
      CHANNELS 3 Zrotation Xrotation Yrotation
      JOINT LeftFoot
      {
        OFFSET 0.245063 -40.7505 0.529473
        CHANNELS 3 Zrotation Xrotation Yrotation
        End Site
        {
          OFFSET 0 -7.69 17.5
        }
      }
    }
  }
  JOINT Spine
  {
    OFFSET 0.0381636 14.2969 0.0214663
    CHANNELS 3 Zrotation Xrotation Yrotation
    JOINT Spine1
    {
      OFFSET 0.0273681 9.71499 0.0100001
      CHANNELS 3 Zrotation Xrotation Yrotation
      JOINT Spine2
      {
        OFFSET 0.029022 10.1215 -0.000399631
        CHANNELS 3 Zrotation Xrotation Yrotation
        JOINT Spine3
        {
          OFFSET 0.0290531 9.71322 0.0107928
          CHANNELS 3 Zrotation Xrotation Yrotation
          JOINT Neck
          {
            OFFSET 0.0830829 10.3832 0.0498053
            CHANNELS 3 Zrotation Xrotation Yrotation
            JOINT Head
            {
              OFFSET 0.0700972 9.47827 0.0499309
              CHANNELS 3 Zrotation Xrotation Yrotation
              End Site
              {
                OFFSET 0 15.95 0
              }
            }
          }
          JOINT RightShoulder
          {
            OFFSET -3.16088 6.93633 0.0290789
            CHANNELS 3 Zrotation Xrotation Yrotation
            JOINT RightArm
            {
              OFFSET -12.7509 0.028765 0.0682708
              CHANNELS 3 Zrotation Xrotation Yrotation
              JOINT RightForeArm
              {
                OFFSET -26.5067 -0.0728143 0.13822
                CHANNELS 3 Zrotation Xrotation Yrotation
                JOINT RightHand
                {
                  OFFSET -25.9897 -0.0664148 0.00141744
                  CHANNELS 3 Zrotation Xrotation Yrotation
                  JOINT RightHandThumb1
                  {
                    OFFSET -2.48905 0.190105 3.12053
                    CHANNELS 3 Zrotation Xrotation Yrotation
                    JOINT RightHandThumb2
                    {
                      OFFSET -3.68274 0 0
                      CHANNELS 3 Zrotation Xrotation Yrotation
                      JOINT RightHandThumb3
                      {
                        OFFSET -2.55832 0 0
                        CHANNELS 3 Zrotation Xrotation Yrotation
                        End Site
                        {
                          OFFSET -2.194 0 0
                        }
                      }
                    }
                  }
                  JOINT RightInHandIndex
                  {
                    OFFSET -3.22368 0.508421 1.97842
                    CHANNELS 3 Zrotation Xrotation Yrotation
                    JOINT RightHandIndex1
                    {
                      OFFSET -5.21684 -0.091368 0.999158
                      CHANNELS 3 Zrotation Xrotation Yrotation
                      JOINT RightHandIndex2
                      {
                        OFFSET -3.61937 0 0
                        CHANNELS 3 Zrotation Xrotation Yrotation
                        JOINT RightHandIndex3
                        {
                          OFFSET -2.0521 0 0
                          CHANNELS 3 Zrotation Xrotation Yrotation
                          End Site
                          {
                            OFFSET -1.805 0 0
                          }
                        }
                      }
                    }
                  }
                  JOINT RightInHandMiddle
                  {
                    OFFSET -3.38211 0.517263 0.756737
                    CHANNELS 3 Zrotation Xrotation Yrotation
                    JOINT RightHandMiddle1
                    {
                      OFFSET -5.17411 -0.084 0.313895
                      CHANNELS 3 Zrotation Xrotation Yrotation
                      JOINT RightHandMiddle2
                      {
                        OFFSET -3.94947 0 0
                        CHANNELS 3 Zrotation Xrotation Yrotation
                        JOINT RightHandMiddle3
                        {
                          OFFSET -2.47579 0 0
                          CHANNELS 3 Zrotation Xrotation Yrotation
                          End Site
                          {
                            OFFSET -1.975 0 0
                          }
                        }
                      }
                    }
                  }
                  JOINT RightInHandRing
                  {
                    OFFSET -3.36516 0.537895 -0.128947
                    CHANNELS 3 Zrotation Xrotation Yrotation
                    JOINT RightHandRing1
                    {
                      OFFSET -4.63474 -0.022105 -0.478947
                      CHANNELS 3 Zrotation Xrotation Yrotation
                      JOINT RightHandRing2
                      {
                        OFFSET -3.44238 0 0
                        CHANNELS 3 Zrotation Xrotation Yrotation
                        JOINT RightHandRing3
                        {
                          OFFSET -2.3881 0 0
                          CHANNELS 3 Zrotation Xrotation Yrotation
                          End Site
                          {
                            OFFSET -1.857 0 0
                          }
                        }
                      }
                    }
                  }
                  JOINT RightInHandPinky
                  {
                    OFFSET -3.16105 0.469368 -1.20179
                    CHANNELS 3 Zrotation Xrotation Yrotation
                    JOINT RightHandPinky1
                    {
                      OFFSET -4.14105 -0.022105 -1.09053
                      CHANNELS 3 Zrotation Xrotation Yrotation
                      JOINT RightHandPinky2
                      {
                        OFFSET -2.75653 0 0
                        CHANNELS 3 Zrotation Xrotation Yrotation
                        JOINT RightHandPinky3
                        {
                          OFFSET -1.74189 0 0
                          CHANNELS 3 Zrotation Xrotation Yrotation
                          End Site
                          {
                            OFFSET -1.645 0 0
                          }
                        }
                      }
                    }
                  }
                }
              }
            }
          }
          JOINT LeftShoulder
          {
            OFFSET 3.23403 6.91572 -0.0126821
            CHANNELS 3 Zrotation Xrotation Yrotation
            JOINT LeftArm
            {
              OFFSET 12.8488 -0.0444641 -0.0528339
              CHANNELS 3 Zrotation Xrotation Yrotation
              JOINT LeftForeArm
              {
                OFFSET 26.4942 -0.0237746 -0.09002
                CHANNELS 3 Zrotation Xrotation Yrotation
                JOINT LeftHand
                {
                  OFFSET 25.9989 -0.00653758 -0.026747
                  CHANNELS 3 Zrotation Xrotation Yrotation
                  JOINT LeftHandThumb1
                  {
                    OFFSET 2.48905 0.190105 3.12053
                    CHANNELS 3 Zrotation Xrotation Yrotation
                    JOINT LeftHandThumb2
                    {
                      OFFSET 3.68274 0 0
                      CHANNELS 3 Zrotation Xrotation Yrotation
                      JOINT LeftHandThumb3
                      {
                        OFFSET 2.55832 0 0
                        CHANNELS 3 Zrotation Xrotation Yrotation
                        End Site
                        {
                          OFFSET 2.194 0 0
                        }
                      }
                    }
                  }
                  JOINT LeftInHandIndex
                  {
                    OFFSET 3.22368 0.508421 1.97842
                    CHANNELS 3 Zrotation Xrotation Yrotation
                    JOINT LeftHandIndex1
                    {
                      OFFSET 5.21684 -0.091368 0.999158
                      CHANNELS 3 Zrotation Xrotation Yrotation
                      JOINT LeftHandIndex2
                      {
                        OFFSET 3.61937 0 0
                        CHANNELS 3 Zrotation Xrotation Yrotation
                        JOINT LeftHandIndex3
                        {
                          OFFSET 2.0521 0 0
                          CHANNELS 3 Zrotation Xrotation Yrotation
                          End Site
                          {
                            OFFSET 1.805 0 0
                          }
                        }
                      }
                    }
                  }
                  JOINT LeftInHandMiddle
                  {
                    OFFSET 3.38211 0.517263 0.756737
                    CHANNELS 3 Zrotation Xrotation Yrotation
                    JOINT LeftHandMiddle1
                    {
                      OFFSET 5.17411 -0.084 0.313895
                      CHANNELS 3 Zrotation Xrotation Yrotation
                      JOINT LeftHandMiddle2
                      {
                        OFFSET 3.94947 0 0
                        CHANNELS 3 Zrotation Xrotation Yrotation
                        JOINT LeftHandMiddle3
                        {
                          OFFSET 2.47579 0 0
                          CHANNELS 3 Zrotation Xrotation Yrotation
                          End Site
                          {
                            OFFSET 1.975 0 0
                          }
                        }
                      }
                    }
                  }
                  JOINT LeftInHandRing
                  {
                    OFFSET 3.36516 0.537895 -0.128947
                    CHANNELS 3 Zrotation Xrotation Yrotation
                    JOINT LeftHandRing1
                    {
                      OFFSET 4.63474 -0.022105 -0.478947
                      CHANNELS 3 Zrotation Xrotation Yrotation
                      JOINT LeftHandRing2
                      {
                        OFFSET 3.44238 0 0
                        CHANNELS 3 Zrotation Xrotation Yrotation
                        JOINT LeftHandRing3
                        {
                          OFFSET 2.3881 0 0
                          CHANNELS 3 Zrotation Xrotation Yrotation
                          End Site
                          {
                            OFFSET 1.857 0 0
                          }
                        }
                      }
                    }
                  }
                  JOINT LeftInHandPinky
                  {
                    OFFSET 3.16105 0.469368 -1.20179
                    CHANNELS 3 Zrotation Xrotation Yrotation
                    JOINT LeftHandPinky1
                    {
                      OFFSET 4.14105 -0.022105 -1.09053
                      CHANNELS 3 Zrotation Xrotation Yrotation
                      JOINT LeftHandPinky2
                      {
                        OFFSET 2.75653 0 0
                        CHANNELS 3 Zrotation Xrotation Yrotation
                        JOINT LeftHandPinky3
                        {
                          OFFSET 1.74189 0 0
                          CHANNELS 3 Zrotation Xrotation Yrotation
                          End Site
                          {
                            OFFSET 1.645 0 0
                          }
                        }
                      }
                    }
                  }
                }
              }
            }
          }
        }
      }
    }
  }
}
MOTION
Frames: 2
Frame Time: 0.00833333
1.264519242898435550e+03 8.740391445305516527e+01 1.769092854557470673e+02 2.690799397077082844e+01 5.592194273188794362e+00 -1.356094481171113841e+02 3.241383890082676089e+01 -4.557315801605119532e+01 2.278395335181718906e+01 -6.164166765326640984e+00 1.523178988297650527e+01 4.695392407406449031e+00 8.305030515178160044e+00 7.628632791460994156e+00 4.802356572900463760e+01 3.740683954324562421e+01 -2.357507664386952939e+01 2.120941747142844491e+01 -2.250971775359487381e+01 4.592226773335654855e+01 2.532392917291281265e+01 2.319201361807460504e+00 -2.178607647123102353e+01 1.360340755676150337e+01 3.768664705603064213e-01 -1.056308757428418232e+00 -1.367329809575184996e+01 9.459874264789225329e-02 -2.028789970972944001e-01 -3.362257665563897824e+00 1.404179497715392078e-01 -2.993551314134470509e-01 -5.393579740630860542e+00 -9.006427367319688182e-01 -3.931325215914076576e-01 2.925717971506784920e+00 -8.423121643046155294e-01 -7.129548671376434221e+00 4.348970862930462289e+01 -1.475509503715719717e+01 8.592887653904266898e+00 3.031473028770418665e+01 2.189111016791019271e+00 1.049622547409766016e+00 1.562439972376088893e+00 5.565082923359878464e+01 -5.986762575625093064e+01 9.615759166435514871e+00 5.038888740556716073e+01 -6.245281617946160324e+00 1.128108088877101665e+02 6.105097358591467405e+00 -3.049107269982370383e+01 4.837733089788224916e+00 2.818400000000000105e+01 1.072940000000000005e+01 1.915919999999999845e+01 1.413565603315568397e-15 5.008123052893398286e-15 -1.000000000000000000e+01 9.370415321385641848e-15 4.470699650399574531e-15 -1.000000000000000000e+01 -3.325716466780903367e-15 3.986166095675620078e-16 4.842748171958164169e-16 1.998179999999999978e+01 8.718970000000000331e-01 2.396399999999999864e+00 2.400000000000000000e+01 -6.664291896566295673e-16 -1.116292901621101539e-14 2.000000000000000000e+01 3.048274853607780452e-15 8.286648204297273428e-15 -3.325716466780903367e-15 3.986166095675620078e-16 4.842748171958164169e-16 2.000000000000000000e+01 -2.311390961144098085e-15 -9.775575922440530662e-15 2.400000000000000000e+01 4.047531431250246972e-15 -1.190443040551562629e-14 2.000000000000000000e+01 -1.007691669820191489e-15 1.265362772270138958e-14 -3.325716466780903367e-15 3.986166095675620078e-16 4.842748171958164169e-16 1.997479999999999833e+01 -1.025649999999999951e+00 -2.819380000000000219e+00 2.400000000000000000e+01 3.504315634813358776e-15 -1.420978904071751384e-15 2.000000000000000000e+01 1.070862521400642959e-14 1.226891358043489681e-14 -3.325716466780903367e-15 3.986166095675620078e-16 4.842748171958164169e-16 1.978150000000000119e+01 -3.009479999999999933e+00 -8.305149999999999366e+00 2.400000000000000000e+01 -2.140645148346323182e-16 -7.929396370698025633e-15 2.000000000000000000e+01 2.351753470110680114e-17 -2.393723708105570155e-15 4.440050043261136281e+00 -2.419075961621588178e+01 -5.650305654151846113e+01 -2.432591096363438510e+01 2.983706297424907916e+01 -9.834096520035653555e+01 2.892574089876825383e+01 -3.720951438276375534e+00 -9.382279130925152089e+00 -4.108894119997095373e+01 -1.164634920440498433e+01 -1.160519120770358548e+01 -2.818400000000000105e+01 1.072940000000000005e+01 -1.915919999999999845e+01 -1.108319784293483424e-14 2.271322813701573883e-15 1.000000000000000000e+01 -1.447086222996713745e-14 7.339848592514653287e-17 1.000000000000000000e+01 -6.960807558349614679e-15 -4.403211076468598501e-15 -3.538420144757342432e-15 -1.998179999999999978e+01 8.718970000000000331e-01 -2.396399999999999864e+00 -2.400000000000000000e+01 3.073663300655109274e-16 -1.039243411538200272e-14 -2.000000000000000000e+01 -9.992356409493759934e-16 6.536653719937515459e-15 -6.960807558349614679e-15 -4.403211076468598501e-15 -3.538420144757342432e-15 -2.000000000000000000e+01 -3.328015284832614021e-15 2.141367175588557329e-15 -2.400000000000000000e+01 2.147653068890004805e-15 -5.566382057055672087e-15 -2.000000000000000000e+01 -1.867264558074692528e-15 2.084915362706542335e-15 -6.960807558349614679e-15 -4.403211076468598501e-15 -3.538420144757342432e-15 -1.997479999999999833e+01 -1.025649999999999951e+00 2.819380000000000219e+00 -2.400000000000000000e+01 6.060726592069623915e-16 2.338086336550571549e-15 -2.000000000000000000e+01 -4.898847955961733354e-15 5.459813951663382583e-15 -6.960807558349614679e-15 -4.403211076468598501e-15 -3.538420144757342432e-15 -1.978150000000000119e+01 -3.009479999999999933e+00 8.305149999999999366e+00 -2.400000000000000000e+01 4.639299317946668817e-16 -6.329667687751967089e-16 -2.000000000000000000e+01 -7.323250308138330045e-15 3.536981462667181980e-15
1.264508494028973246e+03 8.741373597202914425e+01 1.769817564553652574e+02 2.686016262582323577e+01 5.713763724520065423e+00 -1.353313494095041563e+02 3.216925990193977469e+01 -4.550611606177028534e+01 2.256794460183354190e+01 -6.142493206569549002e+00 1.528088335480815374e+01 4.599667299696381662e+00 8.427750167495425160e+00 7.456391059379650521e+00 4.775620110623712833e+01 3.717488460116268811e+01 -2.375268639862332876e+01 2.092854634437743400e+01 -2.227007954657362632e+01 4.597151857021759014e+01 2.513305866265326216e+01 2.356257974176520609e+00 -2.167475893906496154e+01 1.356872689415283340e+01 4.617931253133664704e-01 -9.666256453602279919e-01 -1.362715073783638609e+01 1.184096519299864259e-01 -1.807109242639410862e-01 -3.346803181146380979e+00 1.786183634115400265e-01 -2.636218281280799935e-01 -5.365867897211150428e+00 -8.947034496915249324e-01 -3.842691377713352008e-01 2.904105438714669862e+00 -8.361389058591331969e-01 -7.049077999921632198e+00 4.323017417290580511e+01 -1.465147084719834858e+01 8.597888773601392032e+00 3.005365650364156238e+01 2.179783462195730603e+00 9.385477777680568678e-01 1.590892223225000679e+00 5.579929813874760214e+01 -5.944573958842686068e+01 9.692889713638038529e+00 5.002199053679016316e+01 -6.202501546735791571e+00 1.121961645815210886e+02 6.112635419922003877e+00 -3.052273599154084849e+01 4.805535569393070361e+00 2.818400000000000105e+01 1.072940000000000005e+01 1.915919999999999845e+01 1.464836245670795880e-15 5.042195618202559689e-15 -1.000000000000000000e+01 9.469226948376076185e-15 4.493248772581836448e-15 -1.000000000000000000e+01 -3.316679494402119736e-15 3.624708608263154235e-16 4.838937743008370867e-16 1.998179999999999978e+01 8.718970000000000331e-01 2.396399999999999864e+00 2.400000000000000000e+01 -6.306132907089796716e-16 -1.108391117575270787e-14 2.000000000000000000e+01 3.100209099227353446e-15 8.533252255657750602e-15 -3.316679494402119736e-15 3.624708608263154235e-16 4.838937743008370867e-16 2.000000000000000000e+01 -2.308842255210279011e-15 -9.694363049903985628e-15 2.400000000000000000e+01 4.034451855118769689e-15 -1.182376588366968389e-14 2.000000000000000000e+01 -9.226410629888994510e-16 1.296623056004786410e-14 -3.316679494402119736e-15 3.624708608263154235e-16 4.838937743008370867e-16 1.997479999999999833e+01 -1.025649999999999951e+00 -2.819380000000000219e+00 2.400000000000000000e+01 3.555836451514938402e-15 -1.392431629829823307e-15 2.000000000000000000e+01 1.075933598747004513e-14 1.245097737612766553e-14 -3.316679494402119736e-15 3.624708608263154235e-16 4.838937743008370867e-16 1.978150000000000119e+01 -3.009479999999999933e+00 -8.305149999999999366e+00 2.400000000000000000e+01 -2.231689242070261040e-16 -7.899235736321505433e-15 2.000000000000000000e+01 8.000248181965752744e-17 -2.174118893029542720e-15 4.527258748854578130e+00 -2.414962354155205304e+01 -5.637331371354667198e+01 -2.456932271027553227e+01 2.987713763160668989e+01 -9.808317006701699370e+01 2.822091461605038276e+01 -3.996888049408466426e+00 -9.777795144368978342e+00 -4.113605066536058530e+01 -1.162981994112827699e+01 -1.159755925502572893e+01 -2.818400000000000105e+01 1.072940000000000005e+01 -1.915919999999999845e+01 -1.109210699168541952e-14 2.250285977017135541e-15 1.000000000000000000e+01 -1.449835534373995566e-14 6.332244729799063382e-17 1.000000000000000000e+01 -6.965366016507944447e-15 -4.390181730509793039e-15 -3.538204880948182108e-15 -1.998179999999999978e+01 8.718970000000000331e-01 -2.396399999999999864e+00 -2.400000000000000000e+01 2.537042383899376402e-16 -1.045625978414905660e-14 -2.000000000000000000e+01 -9.966996704074126031e-16 6.332313250242968320e-15 -6.965366016507944447e-15 -4.390181730509793039e-15 -3.538204880948182108e-15 -2.000000000000000000e+01 -3.329096841229300661e-15 2.130761798086487326e-15 -2.400000000000000000e+01 2.143847430540611099e-15 -5.603653090380550137e-15 -2.000000000000000000e+01 -1.810229447777990573e-15 1.884882268693443957e-15 -6.965366016507944447e-15 -4.390181730509793039e-15 -3.538204880948182108e-15 -1.997479999999999833e+01 -1.025649999999999951e+00 2.819380000000000219e+00 -2.400000000000000000e+01 5.570224418599483182e-16 2.335053968507558810e-15 -2.000000000000000000e+01 -4.903851408310497331e-15 5.320281094926379895e-15 -6.965366016507944447e-15 -4.390181730509793039e-15 -3.538204880948182108e-15 -1.978150000000000119e+01 -3.009479999999999933e+00 8.305149999999999366e+00 -2.400000000000000000e+01 4.864221375962005356e-16 -7.044162359004101793e-16 -2.000000000000000000e+01 -7.270114654377487049e-15 3.422852830691385187e-15
